<svg width="2015" height="568" viewBox="0 0 2015 568" fill="none" xmlns="http://www.w3.org/2000/svg">
<rect width="2015" height="568" fill="white"/>
<path d="M657.8 359V213.2H694L741.6 329.6H742.6L790 213.2H826.4V359H803.8V290.8L804.2 237.4H802.6L752.6 359H731.8L681.4 237.4H680L680.4 291V359H657.8ZM1005.54 360.8C989.141 360.8 974.941 357.733 962.941 351.6C951.074 345.333 941.874 336.6 935.341 325.4C928.941 314.2 925.741 301.133 925.741 286.2C925.741 271.133 928.941 258 935.341 246.8C941.874 235.6 951.074 226.933 962.941 220.8C974.941 214.667 989.141 211.6 1005.54 211.6C1021.94 211.6 1036.07 214.733 1047.94 221C1059.81 227.133 1068.94 235.8 1075.34 247C1081.87 258.067 1085.14 271.133 1085.14 286.2C1085.14 301.133 1081.87 314.2 1075.34 325.4C1068.94 336.6 1059.81 345.333 1047.94 351.6C1036.07 357.733 1021.94 360.8 1005.54 360.8ZM1005.54 341.2C1016.87 341.2 1026.67 339 1034.94 334.6C1043.21 330.2 1049.61 323.933 1054.14 315.8C1058.67 307.533 1060.94 297.667 1060.94 286.2C1060.94 274.6 1058.67 264.667 1054.14 256.4C1049.61 248.133 1043.21 241.867 1034.94 237.6C1026.67 233.2 1016.87 231 1005.54 231C988.474 231 974.941 235.867 964.941 245.6C955.074 255.333 950.141 268.867 950.141 286.2C950.141 297.667 952.407 307.533 956.941 315.8C961.474 323.933 967.874 330.2 976.141 334.6C984.407 339 994.207 341.2 1005.54 341.2ZM1216.86 359V232.8H1164.46V213.2H1293.66V232.8H1240.86V359H1216.86ZM1452.45 360.8C1436.05 360.8 1421.85 357.733 1409.85 351.6C1397.99 345.333 1388.79 336.6 1382.25 325.4C1375.85 314.2 1372.65 301.133 1372.65 286.2C1372.65 271.133 1375.85 258 1382.25 246.8C1388.79 235.6 1397.99 226.933 1409.85 220.8C1421.85 214.667 1436.05 211.6 1452.45 211.6C1468.85 211.6 1482.99 214.733 1494.85 221C1506.72 227.133 1515.85 235.8 1522.25 247C1528.79 258.067 1532.05 271.133 1532.05 286.2C1532.05 301.133 1528.79 314.2 1522.25 325.4C1515.85 336.6 1506.72 345.333 1494.85 351.6C1482.99 357.733 1468.85 360.8 1452.45 360.8ZM1452.45 341.2C1463.79 341.2 1473.59 339 1481.85 334.6C1490.12 330.2 1496.52 323.933 1501.05 315.8C1505.59 307.533 1507.85 297.667 1507.85 286.2C1507.85 274.6 1505.59 264.667 1501.05 256.4C1496.52 248.133 1490.12 241.867 1481.85 237.6C1473.59 233.2 1463.79 231 1452.45 231C1435.39 231 1421.85 235.867 1411.85 245.6C1401.99 255.333 1397.05 268.867 1397.05 286.2C1397.05 297.667 1399.32 307.533 1403.85 315.8C1408.39 323.933 1414.79 330.2 1423.05 334.6C1431.32 339 1441.12 341.2 1452.45 341.2ZM1631.51 359V213.2H1714.71C1724.71 213.2 1733.51 214.667 1741.11 217.6C1748.71 220.4 1754.64 224.8 1758.91 230.8C1763.18 236.8 1765.31 244.533 1765.31 254C1765.31 262.933 1763.04 270.6 1758.51 277C1754.11 283.267 1747.58 287.533 1738.91 289.8V291.2C1747.04 292.533 1752.91 295.6 1756.51 300.4C1760.11 305.2 1761.91 311.8 1761.91 320.2V342.8C1761.91 345.333 1761.98 348 1762.11 350.8C1762.38 353.467 1763.04 356.2 1764.11 359H1740.11C1739.18 357 1738.58 354.733 1738.31 352.2C1738.04 349.533 1737.91 346.333 1737.91 342.6V323.6C1737.91 316.133 1736.11 310.467 1732.51 306.6C1729.04 302.733 1722.18 300.8 1711.91 300.8H1655.51V359H1631.51ZM1655.51 283H1710.11C1721.58 283 1729.58 280.533 1734.11 275.6C1738.64 270.667 1740.91 264.333 1740.91 256.6C1740.91 247.8 1738.11 241.533 1732.51 237.8C1726.91 233.933 1719.44 232 1710.11 232H1655.51V283ZM1923.48 360.8C1907.88 360.8 1895.15 358.8 1885.28 354.8C1875.42 350.667 1868.02 345.067 1863.08 338C1858.28 330.8 1855.68 322.533 1855.28 313.2H1880.48C1881.02 323.2 1885.02 330.8 1892.48 336C1899.95 341.067 1910.55 343.6 1924.28 343.6C1937.48 343.6 1947.35 341.467 1953.88 337.2C1960.42 332.933 1963.68 327 1963.68 319.4C1963.68 313 1961.95 308.267 1958.48 305.2C1955.15 302 1950.22 299.667 1943.68 298.2C1937.28 296.733 1929.42 295.4 1920.08 294.2C1907.82 292.6 1897.08 290.533 1887.88 288C1878.82 285.333 1871.82 281.333 1866.88 276C1861.95 270.533 1859.48 263 1859.48 253.4C1859.48 244.467 1862.02 236.933 1867.08 230.8C1872.15 224.533 1879.35 219.8 1888.68 216.6C1898.02 213.267 1908.95 211.6 1921.48 211.6C1940.42 211.6 1955.15 215.4 1965.68 223C1976.35 230.467 1982.08 240.933 1982.88 254.4H1958.48C1957.95 245.6 1954.28 239.133 1947.48 235C1940.82 230.733 1931.82 228.6 1920.48 228.6C1908.88 228.6 1899.88 230.6 1893.48 234.6C1887.22 238.6 1884.08 244 1884.08 250.8C1884.08 256.533 1885.62 260.867 1888.68 263.8C1891.75 266.6 1896.42 268.733 1902.68 270.2C1908.95 271.533 1916.88 272.8 1926.48 274C1935.95 275.2 1944.48 276.667 1952.08 278.4C1959.68 280 1966.22 282.333 1971.68 285.4C1977.15 288.467 1981.28 292.6 1984.08 297.8C1987.02 302.867 1988.48 309.467 1988.48 317.6C1988.48 330.933 1982.95 341.467 1971.88 349.2C1960.82 356.933 1944.68 360.8 1923.48 360.8Z" fill="black"/>
<path fill-rule="evenodd" clip-rule="evenodd" d="M422.876 110.656C393.086 84.9314 346.421 81.1918 293.672 105.67C202.334 148.055 127.344 258.993 126.175 353.458C125.287 425.258 167.303 466.875 227.623 464.1C142.744 488.811 78.8748 442.376 80.015 350.206C81.2859 247.471 162.842 126.821 262.176 80.7247C333.471 47.64 394.547 61.9543 422.876 110.656Z" fill="url(#paint0_linear_236_210)"/>
<path fill-rule="evenodd" clip-rule="evenodd" d="M429.002 119.227C401.026 94.3737 357.2 90.7595 307.66 114.407C221.884 155.351 151.459 262.517 150.362 353.769C149.528 423.128 188.986 463.329 245.632 460.649C165.922 484.518 105.943 439.661 107.014 350.627C108.208 251.386 184.798 134.837 278.084 90.3089C345.04 58.348 402.399 72.1776 429.002 119.227Z" fill="url(#paint1_linear_236_210)"/>
<path fill-rule="evenodd" clip-rule="evenodd" d="M334.765 46.7408C405.133 43.4709 454.149 92.4481 453.113 176.949C451.749 288.119 364.271 418.677 257.724 468.558C196.187 497.367 141.748 492.964 106.998 462.684C140.043 520.003 211.291 536.851 294.461 497.914C410.336 443.666 505.473 301.679 506.956 180.776C508.286 72.305 433.78 17.6577 334.765 46.7408Z" fill="url(#paint2_linear_236_210)"/>
<path fill-rule="evenodd" clip-rule="evenodd" d="M344.779 44.016C415.772 40.6284 465.223 91.3405 464.178 178.836C462.803 293.943 374.55 429.125 267.06 480.772C204.979 510.602 150.058 506.042 115 474.691C148.338 534.039 220.216 551.483 304.122 511.167C421.023 454.998 517.002 307.982 518.498 182.797C519.84 70.4832 444.673 13.9005 344.779 44.016Z" fill="url(#paint3_linear_236_210)"/>
<rect x="21" y="178" width="558" height="209" fill="white"/>
<path d="M229.685 371.13L227.977 376.906H234H288.941H292.418L293.296 373.542L320.113 270.767L365.416 358.981L365.544 359.229L365.701 359.459C371.89 368.541 378.873 374.37 386.187 377.545C393.512 380.724 400.887 381.116 407.635 379.771C420.875 377.133 431.987 367.755 436.486 358.986C436.487 358.984 436.489 358.981 436.49 358.978L482.165 270.715L508.996 373.542L509.874 376.906H513.35H571H577.075L575.305 371.095L523.072 199.638L522.771 198.651L522.071 197.894C509.676 184.49 496.681 181.249 485.316 183.366C474.322 185.414 465.551 192.34 460.762 198.06L460.495 198.38L460.291 198.742L401.957 302.401L344.727 198.774L344.584 198.515L344.408 198.276C334.089 184.299 320.248 180.228 307.948 181.828C296.027 183.379 285.198 190.334 280.705 198.849L280.497 199.245L280.37 199.673L229.685 371.13Z" fill="url(#paint4_linear_236_210)" stroke="white" stroke-width="9"/>
<path d="M319 257.501C306.5 238.501 267.542 259.175 262 278.5L234 372.501H289L319 257.501Z" fill="url(#paint5_linear_236_210)"/>
<path d="M483.5 258.001C476.708 236.951 435.877 250.29 426.5 268L384.501 343.5L429.5 361.5L483.5 258.001Z" fill="url(#paint6_linear_236_210)"/>
<path fill-rule="evenodd" clip-rule="evenodd" d="M34 256V374.455H203.135C289.444 370.198 276.672 289.694 239.516 279.244C289.831 247.12 252.675 191 212.811 191H71.5425L34 238.218V240H192C196.418 240 200 243.582 200 248C200 252.418 196.418 256 192 256H34ZM93 302H189C193.418 302 197 305.582 197 310C197 314.418 193.418 318 189 318H93V302Z" fill="url(#paint7_linear_236_210)"/>
<path d="M34 374.455H29.5V378.955H34V374.455ZM34 256V251.5H29.5V256H34ZM203.135 374.455V378.955H203.246L203.357 378.95L203.135 374.455ZM239.516 279.244L237.095 275.451L228.628 280.857L238.298 283.576L239.516 279.244ZM71.5425 191V186.5H69.3714L68.0202 188.199L71.5425 191ZM34 238.218L30.4777 235.418L29.5 236.647V238.218H34ZM34 240H29.5V244.5H34V240ZM93 302V297.5H88.5V302H93ZM93 318H88.5V322.5H93V318ZM38.5 374.455V256H29.5V374.455H38.5ZM203.135 369.955H34V378.955H203.135V369.955ZM238.298 283.576C254.189 288.046 265.897 308.239 263.165 328.573C261.834 338.48 257.044 348.199 247.64 355.742C238.201 363.313 223.804 368.93 202.913 369.961L203.357 378.95C225.62 377.852 241.993 371.809 253.272 362.762C264.587 353.687 270.465 341.828 272.085 329.771C275.255 306.176 261.999 280.893 240.735 274.912L238.298 283.576ZM212.811 195.5C230.755 195.5 248.516 208.281 255.865 224.896C259.489 233.088 260.48 242.001 257.87 250.596C255.267 259.169 248.941 267.888 237.095 275.451L241.938 283.037C255.249 274.538 263.146 264.196 266.482 253.211C269.81 242.249 268.455 231.109 264.096 221.255C255.481 201.779 234.731 186.5 212.811 186.5V195.5ZM71.5425 195.5H212.811V186.5H71.5425V195.5ZM37.5223 241.019L75.0649 193.801L68.0202 188.199L30.4777 235.418L37.5223 241.019ZM38.5 240V238.218H29.5V240H38.5ZM34 244.5H192V235.5H34V244.5ZM192 244.5C193.933 244.5 195.5 246.067 195.5 248H204.5C204.5 241.096 198.904 235.5 192 235.5V244.5ZM195.5 248C195.5 249.933 193.933 251.5 192 251.5V260.5C198.904 260.5 204.5 254.904 204.5 248H195.5ZM192 251.5H34V260.5H192V251.5ZM189 297.5H93V306.5H189V297.5ZM201.5 310C201.5 303.096 195.904 297.5 189 297.5V306.5C190.933 306.5 192.5 308.067 192.5 310H201.5ZM189 322.5C195.904 322.5 201.5 316.904 201.5 310H192.5C192.5 311.933 190.933 313.5 189 313.5V322.5ZM93 322.5H189V313.5H93V322.5ZM88.5 302V318H97.5V302H88.5Z" fill="white"/>
<path d="M74.1088 194L38 236.341L180.904 236.673C198.065 236.334 202.495 239.783 204 243C199.326 205.845 161.681 195.661 142.816 195.435L74.1088 194Z" fill="url(#paint8_linear_236_210)"/>
<defs>
<linearGradient id="paint0_linear_236_210" x1="284.499" y1="58" x2="221.499" y2="494.5" gradientUnits="userSpaceOnUse">
<stop stop-color="#393939"/>
<stop offset="0.489583" stop-color="#A4A4A4"/>
<stop offset="1" stop-color="#444444"/>
</linearGradient>
<linearGradient id="paint1_linear_236_210" x1="409.297" y1="92.9504" x2="218.578" y2="467.397" gradientUnits="userSpaceOnUse">
<stop stop-color="#707070"/>
<stop offset="0.362816" stop-color="#3D3D3D"/>
<stop offset="1" stop-color="#717171"/>
</linearGradient>
<linearGradient id="paint2_linear_236_210" x1="504" y1="-55" x2="167.203" y2="592.545" gradientUnits="userSpaceOnUse">
<stop stop-color="#B0D9FF"/>
<stop offset="0.291284" stop-color="#234A8E"/>
<stop offset="0.604167" stop-color="#253A7E"/>
<stop offset="1" stop-color="#2175BB"/>
</linearGradient>
<linearGradient id="paint3_linear_236_210" x1="537.001" y1="-4.50002" x2="183.706" y2="569.47" gradientUnits="userSpaceOnUse">
<stop stop-color="#224484"/>
<stop offset="0.286458" stop-color="#2174B8"/>
<stop offset="0.665451" stop-color="#1E63A8"/>
<stop offset="1" stop-color="#242C6D"/>
</linearGradient>
<linearGradient id="paint4_linear_236_210" x1="402.5" y1="186" x2="402.5" y2="376" gradientUnits="userSpaceOnUse">
<stop stop-color="#1A1A1A"/>
<stop offset="0.520833" stop-color="#838383"/>
<stop offset="1" stop-color="#292929"/>
</linearGradient>
<linearGradient id="paint5_linear_236_210" x1="278.75" y1="240.085" x2="271.5" y2="410.5" gradientUnits="userSpaceOnUse">
<stop stop-color="#212121"/>
<stop offset="0.677083" stop-color="#828282"/>
<stop offset="1" stop-color="#303030"/>
</linearGradient>
<linearGradient id="paint6_linear_236_210" x1="451.912" y1="232.475" x2="403.461" y2="356.093" gradientUnits="userSpaceOnUse">
<stop stop-color="#212121"/>
<stop offset="0.551251" stop-color="#7D7D7D"/>
<stop offset="1" stop-color="#414141"/>
<stop offset="1" stop-color="#414141" stop-opacity="0"/>
</linearGradient>
<linearGradient id="paint7_linear_236_210" x1="239" y1="195" x2="71.5" y2="351.5" gradientUnits="userSpaceOnUse">
<stop stop-color="#1E43A4"/>
<stop offset="0.494792" stop-color="#3282BF"/>
<stop offset="1" stop-color="#08368F"/>
</linearGradient>
<linearGradient id="paint8_linear_236_210" x1="43.6134" y1="231.249" x2="202.447" y2="231.249" gradientUnits="userSpaceOnUse">
<stop stop-color="#3281BF"/>
<stop offset="0.489583" stop-color="#1D529E"/>
<stop offset="1" stop-color="#11356A"/>
</linearGradient>
</defs>
</svg>
